<?xml version="1.0" encoding="UTF-8" standalone="no"?>
<!-- Created with Inkscape (http://www.inkscape.org/) -->

<svg
   xmlns:dc="http://purl.org/dc/elements/1.1/"
   xmlns:cc="http://creativecommons.org/ns#"
   xmlns:rdf="http://www.w3.org/1999/02/22-rdf-syntax-ns#"
   xmlns:svg="http://www.w3.org/2000/svg"
   xmlns="http://www.w3.org/2000/svg"
   xmlns:sodipodi="http://sodipodi.sourceforge.net/DTD/sodipodi-0.dtd"
   xmlns:inkscape="http://www.inkscape.org/namespaces/inkscape"
   width="29.683178mm"
   height="29.819611mm"
   viewBox="0 0 29.683178 29.819611"
   version="1.1"
   id="svg8"
   inkscape:export-filename="/home/dsellis/bitmap.png"
   inkscape:export-xdpi="96"
   inkscape:export-ydpi="96"
   inkscape:version="0.92.4 (5da689c313, 2019-01-14)"
   sodipodi:docname="heart.svg">
  <defs
     id="defs2" />
  <sodipodi:namedview
     id="base"
     pagecolor="#ffffff"
     bordercolor="#666666"
     borderopacity="1.0"
     inkscape:pageopacity="0.0"
     inkscape:pageshadow="2"
     inkscape:zoom="1.979899"
     inkscape:cx="29.501196"
     inkscape:cy="25.976765"
     inkscape:document-units="mm"
     inkscape:current-layer="layer1"
     showgrid="false"
     fit-margin-top="0"
     fit-margin-left="0"
     fit-margin-right="0"
     fit-margin-bottom="0"
     inkscape:pagecheckerboard="true"
     inkscape:window-width="1920"
     inkscape:window-height="1043"
     inkscape:window-x="1920"
     inkscape:window-y="0"
     inkscape:window-maximized="1" />
  <metadata
     id="metadata5">
    <rdf:RDF>
      <cc:Work
         rdf:about="">
        <dc:format>image/svg+xml</dc:format>
        <dc:type
           rdf:resource="http://purl.org/dc/dcmitype/StillImage" />
        <dc:title></dc:title>
      </cc:Work>
    </rdf:RDF>
  </metadata>
  <g
     inkscape:label="Layer 1"
     inkscape:groupmode="layer"
     id="layer1"
     transform="translate(-36.875065,-126.72891)">
    <g
       id="g29">
      <path
         inkscape:connector-curvature="0"
         id="path10"
         d="m 51.716654,132.36197 c -0.178181,-0.22273 -0.368755,-0.43608 -0.534541,-0.66817 -0.171071,-0.23951 -0.224385,-0.56646 -0.400904,-0.80181 -0.113393,-0.15119 -0.296072,-0.24366 -0.400905,-0.40091 -0.05525,-0.0829 -0.07838,-0.18439 -0.133633,-0.26727 -0.03494,-0.0524 -0.09869,-0.0812 -0.133636,-0.13363 -0.05525,-0.0829 -0.07387,-0.18759 -0.133633,-0.26727 -0.0756,-0.10079 -0.178181,-0.17818 -0.267271,-0.26727 -0.222724,-0.22273 -0.445448,-0.44545 -0.668174,-0.66818 -0.178178,-0.17817 -0.356359,-0.35635 -0.534538,-0.53453 -0.04454,-0.0445 -0.08909,-0.0891 -0.133635,-0.13364 -0.04455,-0.0445 -0.07729,-0.10546 -0.133636,-0.13363 -0.125992,-0.063 -0.27491,-0.0706 -0.400902,-0.13364 -0.05635,-0.0282 -0.08324,-0.0958 -0.133636,-0.13363 -0.128487,-0.0964 -0.263183,-0.18464 -0.400904,-0.26727 -0.591894,-0.35514 -0.0403,-0.0435 -0.400905,-0.13364 -0.136657,-0.0342 -0.264247,-0.0995 -0.400905,-0.13363 -0.04321,-0.0108 -0.09379,0.0199 -0.133633,0 -0.05635,-0.0282 -0.07387,-0.11372 -0.133635,-0.13364 -0.09091,-0.0303 -0.597316,0.0354 -0.668174,0 -0.112691,-0.0563 -0.15458,-0.21092 -0.267269,-0.26727 -0.03984,-0.0199 -0.08909,0 -0.133635,0 -0.04455,0 -0.08909,0 -0.133636,0 -0.222724,0 -0.445447,0 -0.668174,0 -0.222723,0 -0.445447,0 -0.668173,0 -0.133636,0 -0.274127,-0.0423 -0.400905,0 -0.05976,0.0199 -0.08122,0.0987 -0.133633,0.13364 -0.08288,0.0553 -0.172775,0.10213 -0.267271,0.13363 -0.08452,0.0282 -0.182751,-0.0282 -0.267269,0 -0.09449,0.0315 -0.174789,0.0966 -0.267269,0.13364 -0.130789,0.0523 -0.274913,0.0706 -0.400905,0.13363 -0.102081,0.0511 -0.310414,0.37074 -0.400904,0.40091 -0.08452,0.0282 -0.182751,-0.0282 -0.267269,0 -0.05976,0.0199 -0.08909,0.0891 -0.133636,0.13363 -0.08909,0.0891 -0.178178,0.17818 -0.267269,0.26727 -0.04454,0.0445 -0.08122,0.0987 -0.133635,0.13364 -0.08288,0.0553 -0.196837,0.0632 -0.267269,0.13363 -0.07043,0.0704 -0.07838,0.18439 -0.133636,0.26727 -0.03494,0.0524 -0.08909,0.0891 -0.133633,0.13363 -0.04454,0.0445 -0.08122,0.0987 -0.133636,0.13364 -0.08288,0.0553 -0.184393,0.0784 -0.267269,0.13364 -0.104833,0.0699 -0.178181,0.17817 -0.267269,0.26726 -0.133635,0.13364 -0.267271,0.26727 -0.400904,0.40091 -0.04454,0.0445 -0.07729,0.10546 -0.133636,0.13363 -0.03984,0.0199 -0.09379,-0.0199 -0.133633,0 -0.02294,0.0115 -0.395372,0.38431 -0.400905,0.40091 -0.02817,0.0845 0.02817,0.18275 0,0.26727 -0.01992,0.0598 -0.105463,0.0773 -0.133635,0.13363 -0.01992,0.0399 0.01992,0.0938 0,0.13364 -0.02817,0.0563 -0.113713,0.0739 -0.133636,0.13363 -0.0303,0.0909 0.03543,0.59732 0,0.66818 -0.05634,0.11269 -0.210923,0.15457 -0.267269,0.26727 -0.01992,0.0398 0.01992,0.0938 0,0.13363 -0.02817,0.0563 -0.105463,0.0773 -0.133633,0.13363 -0.01992,0.0399 0,0.0891 0,0.13364 0,0.0891 0.02162,0.18084 0,0.26727 -0.02416,0.0966 -0.102137,0.17277 -0.133636,0.26727 -0.04226,0.12678 0.03241,0.27126 0,0.4009 -0.02416,0.0966 -0.102137,0.17278 -0.133636,0.26727 -0.03733,0.112 0.04428,0.44598 0,0.53454 -0.05635,0.11269 -0.227427,0.14774 -0.267268,0.26727 -0.02257,0.0677 0,0.8262 0,0.93544 0,0.3134 0.0315,-0.063 -0.133636,0.26727 -0.01992,0.0399 0,0.0891 0,0.13364 0,0.0891 0,0.17818 0,0.26727 0,0.31181 0,0.62363 0,0.93544 0,0.17818 0.04322,0.36168 0,0.53454 -0.01527,0.0611 -0.10546,0.0773 -0.133633,0.13363 -0.0213,0.0426 0,0.54875 0,0.66818 0,0.44545 0,0.8909 0,1.33635 0,0.22272 0,0.44544 0,0.66817 0,0.0891 0,0.17818 0,0.26727 0,0.0446 -0.01992,0.0938 0,0.13364 0.02817,0.0563 0.08909,0.0891 0.133633,0.13363 0.1529,0.1529 0.186367,0.15819 0.267271,0.4009 0.04155,0.12466 -0.04117,0.54467 0,0.66818 0.01992,0.0598 0.105461,0.0773 0.133633,0.13363 0.01992,0.0398 -0.01407,0.0914 0,0.13364 0.0315,0.0945 0.102138,0.17277 0.133636,0.26727 0.02817,0.0845 -0.04942,0.19314 0,0.26727 0.06989,0.10483 0.191675,0.16647 0.267269,0.26726 0.29442,0.0673 0.07064,0.27492 0.133636,0.40091 0.02817,0.0564 0.10546,0.0773 0.133633,0.13364 0.03776,0.0755 -0.03737,0.55605 0,0.66817 0.0315,0.0945 0.102137,0.17277 0.133636,0.26727 0.02817,0.0845 -0.03984,0.18758 0,0.26727 0.05635,0.11269 0.227428,0.14774 0.267269,0.26727 0.02817,0.0845 -0.02162,0.18084 0,0.26727 0.02416,0.0966 0.102137,0.17277 0.133635,0.26727 0.03733,0.112 -0.04428,0.44597 0,0.53454 0.02817,0.0563 0.105463,0.0773 0.133636,0.13363 0.03984,0.0797 -0.02817,0.18275 0,0.26727 0.0315,0.0945 0.102134,0.17278 0.133633,0.26727 0.01408,0.0423 -0.01992,0.0938 0,0.13363 0.05635,0.11269 0.210926,0.15458 0.267269,0.26727 0.01992,0.0398 -0.01992,0.0938 0,0.13364 0.05635,0.11269 0.227428,0.14774 0.267271,0.26727 0.02817,0.0845 -0.02817,0.18275 0,0.26727 0.01992,0.0598 0.09869,0.0812 0.133634,0.13363 0.05525,0.0829 0.07839,0.18439 0.133635,0.26727 0.06989,0.10483 0.210923,0.15458 0.267269,0.26727 0.01992,0.0398 -0.01408,0.0914 0,0.13364 0.322657,0.96797 -0.03853,-0.21069 0.267269,0.4009 0.03984,0.0797 -0.03984,0.18759 0,0.26727 0.102338,0.20467 0.238141,0.10451 0.400905,0.26727 0.02732,0.0273 -0.02649,0.34792 0,0.4009 0.02817,0.0564 0.08909,0.0891 0.133635,0.13364 0.08909,0.0891 0.178179,0.17818 0.267269,0.26727 0.222726,0.22272 0.44545,0.44545 0.668174,0.66817 0.222726,0.22273 0.44545,0.44545 0.668173,0.66817 0.08559,0.0856 0.409483,0.45117 0.53454,0.53455 0.08288,0.0553 0.184394,0.0784 0.267269,0.13363 0.154194,0.10279 0.246711,0.29811 0.400905,0.4009 0.08288,0.0553 0.184393,0.0784 0.267269,0.13364 0.05242,0.0349 0.07387,0.11371 0.133636,0.13363 0.08452,0.0282 0.187584,-0.0398 0.267268,0 0.303803,0.1519 0.265298,0.43382 0.668174,0.53454 0.886423,0 -0.188987,-0.063 0.400904,0.13364 0.08452,0.0282 0.182753,-0.0282 0.267272,0 0.05976,0.0199 0.08909,0.0891 0.133633,0.13363 0.04454,0.0446 0.08909,0.0891 0.133636,0.13364 0.172021,0.17202 0.290055,0.3194 0.534537,0.4009 0.397809,0.1326 -0.274193,-0.31643 0.400905,0.13363 0.305798,0.20387 -0.08356,0.10578 0.400905,0.26727 0.04226,0.0141 0.09042,-0.0108 0.133635,0 0.136658,0.0342 0.264245,0.0995 0.400905,0.13364 0.04321,0.0108 0.09042,-0.0108 0.133633,0 0.136657,0.0342 0.264247,0.0995 0.400905,0.13363 0.04321,0.0108 0.09657,-0.0247 0.133635,0 0.104831,0.0699 0.178179,0.17818 0.267269,0.26727 0.04455,0.0445 0.07729,0.10547 0.133636,0.13364 0.07968,0.0398 0.187584,-0.0398 0.267269,0 0.05635,0.0282 0.07729,0.10546 0.133633,0.13363 0.03984,0.0199 0.08909,0 0.133636,0 0.08909,0 0.182753,-0.0282 0.267269,0 0.05976,0.0199 0.08122,0.0987 0.133635,0.13364 0.08288,0.0553 0.184394,0.0784 0.267269,0.13363 0.305798,0.20387 -0.08356,0.10578 0.400905,0.26727 0.04226,0.0141 0.09379,-0.0199 0.133636,0 0.05635,0.0282 0.07387,0.11372 0.133633,0.13364 0.06112,0.0204 0.475075,-0.0297 0.53454,0 0.222787,0.11139 0.06038,0.26727 0.400905,0.26727"
         style="fill:#ff0000;stroke:#000000;stroke-width:0.26458332px;stroke-linecap:butt;stroke-linejoin:miter;stroke-opacity:1" />
      <path
         inkscape:connector-curvature="0"
         id="path10-3"
         d="m 51.716654,132.36197 c 0.178181,-0.22273 0.368755,-0.43608 0.534541,-0.66817 0.171071,-0.23951 0.224385,-0.56646 0.400904,-0.80181 0.113393,-0.15119 0.296072,-0.24366 0.400905,-0.40091 0.05525,-0.0829 0.07838,-0.18439 0.133633,-0.26727 0.03494,-0.0524 0.09869,-0.0812 0.133636,-0.13363 0.05525,-0.0829 0.07387,-0.18759 0.133633,-0.26727 0.0756,-0.10079 0.178181,-0.17818 0.267271,-0.26727 0.222724,-0.22273 0.445448,-0.44545 0.668174,-0.66818 0.178178,-0.17817 0.356359,-0.35635 0.534538,-0.53453 0.04454,-0.0445 0.08909,-0.0891 0.133635,-0.13364 0.04455,-0.0445 0.07729,-0.10546 0.133636,-0.13363 0.125992,-0.063 0.27491,-0.0706 0.400902,-0.13364 0.05635,-0.0282 0.08324,-0.0958 0.133636,-0.13363 0.128487,-0.0964 0.263183,-0.18464 0.400904,-0.26727 0.591894,-0.35514 0.0403,-0.0435 0.400905,-0.13364 0.136657,-0.0342 0.264248,-0.0995 0.400905,-0.13363 0.04321,-0.0108 0.09379,0.0199 0.133633,0 0.05635,-0.0282 0.07387,-0.11372 0.133635,-0.13364 0.09091,-0.0303 0.597316,0.0354 0.668174,0 0.112691,-0.0563 0.154581,-0.21092 0.267269,-0.26727 0.03984,-0.0199 0.08909,0 0.133635,0 0.04455,0 0.08909,0 0.133636,0 0.222724,0 0.445447,0 0.668174,0 0.222724,0 0.445447,0 0.668173,0 0.133636,0 0.274127,-0.0423 0.400906,0 0.05976,0.0199 0.08122,0.0987 0.133632,0.13364 0.08288,0.0553 0.172775,0.10213 0.267271,0.13363 0.08452,0.0282 0.182751,-0.0282 0.267269,0 0.09449,0.0315 0.174789,0.0966 0.26727,0.13364 0.130788,0.0523 0.274912,0.0706 0.400904,0.13363 0.102081,0.0511 0.310414,0.37074 0.400905,0.40091 0.08452,0.0282 0.18275,-0.0282 0.267268,0 0.05976,0.0199 0.08909,0.0891 0.133636,0.13363 0.08909,0.0891 0.178178,0.17818 0.267269,0.26727 0.04454,0.0445 0.08122,0.0987 0.133635,0.13364 0.08288,0.0553 0.196837,0.0632 0.26727,0.13363 0.07043,0.0704 0.07838,0.18439 0.133636,0.26727 0.03494,0.0524 0.08909,0.0891 0.133632,0.13363 0.04454,0.0445 0.08122,0.0987 0.133636,0.13364 0.08288,0.0553 0.184394,0.0784 0.26727,0.13364 0.104832,0.0699 0.178181,0.17817 0.267268,0.26726 0.133635,0.13364 0.267271,0.26727 0.400904,0.40091 0.04454,0.0445 0.07729,0.10546 0.133636,0.13363 0.03984,0.0199 0.09379,-0.0199 0.133633,0 0.02294,0.0115 0.395372,0.38431 0.400905,0.40091 0.02817,0.0845 -0.02817,0.18275 0,0.26727 0.01992,0.0598 0.105463,0.0773 0.133635,0.13363 0.01992,0.0399 -0.01992,0.0938 0,0.13364 0.02817,0.0563 0.113713,0.0739 0.133636,0.13363 0.0303,0.0909 -0.03543,0.59732 0,0.66818 0.05634,0.11269 0.210923,0.15457 0.26727,0.26727 0.01992,0.0398 -0.01992,0.0938 0,0.13363 0.02817,0.0563 0.105463,0.0773 0.133633,0.13363 0.01992,0.0399 0,0.0891 0,0.13364 0,0.0891 -0.02162,0.18084 0,0.26727 0.02416,0.0966 0.102137,0.17277 0.133636,0.26727 0.04226,0.12678 -0.03241,0.27126 0,0.4009 0.02416,0.0966 0.102137,0.17278 0.133636,0.26727 0.03733,0.112 -0.04428,0.44598 0,0.53454 0.05635,0.11269 0.227427,0.14774 0.267268,0.26727 0.02257,0.0677 0,0.8262 0,0.93544 0,0.3134 -0.0315,-0.063 0.133636,0.26727 0.01992,0.0399 0,0.0891 0,0.13364 0,0.0891 0,0.17818 0,0.26727 0,0.31181 0,0.62363 0,0.93544 0,0.17818 -0.04322,0.36168 0,0.53454 0.01527,0.0611 0.10546,0.0773 0.133633,0.13363 0.0213,0.0426 0,0.54875 0,0.66818 0,0.44545 0,0.8909 0,1.33635 0,0.22272 0,0.44544 0,0.66817 0,0.0891 0,0.17818 0,0.26727 0,0.0446 0.01992,0.0938 0,0.13364 -0.02817,0.0563 -0.08909,0.0891 -0.133633,0.13363 -0.1529,0.1529 -0.186367,0.15819 -0.267271,0.4009 -0.04155,0.12466 0.04117,0.54467 0,0.66818 -0.01992,0.0598 -0.105461,0.0773 -0.133633,0.13363 -0.01992,0.0398 0.01407,0.0914 0,0.13364 -0.0315,0.0945 -0.102138,0.17277 -0.133636,0.26727 -0.02817,0.0845 0.04942,0.19314 0,0.26727 -0.06989,0.10483 -0.191675,0.16647 -0.267269,0.26726 -0.294421,0.0673 -0.07064,0.27492 -0.133637,0.40091 -0.02817,0.0564 -0.10546,0.0773 -0.133633,0.13364 -0.03776,0.0755 0.03737,0.55605 0,0.66817 -0.0315,0.0945 -0.102137,0.17277 -0.133636,0.26727 -0.02817,0.0845 0.03984,0.18758 0,0.26727 -0.05635,0.11269 -0.227428,0.14774 -0.267269,0.26727 -0.02817,0.0845 0.02162,0.18084 0,0.26727 -0.02416,0.0966 -0.102137,0.17277 -0.133635,0.26727 -0.03733,0.112 0.04428,0.44597 0,0.53454 -0.02817,0.0563 -0.105463,0.0773 -0.133636,0.13363 -0.03984,0.0797 0.02817,0.18275 0,0.26727 -0.0315,0.0945 -0.102134,0.17278 -0.133633,0.26727 -0.01408,0.0423 0.01992,0.0938 0,0.13363 -0.05635,0.11269 -0.210926,0.15458 -0.267269,0.26727 -0.01992,0.0398 0.01992,0.0938 0,0.13364 -0.05635,0.11269 -0.227428,0.14774 -0.267271,0.26727 -0.02817,0.0845 0.02817,0.18275 0,0.26727 -0.01992,0.0598 -0.09869,0.0812 -0.133633,0.13363 -0.05525,0.0829 -0.07839,0.18439 -0.133635,0.26727 -0.06989,0.10483 -0.210924,0.15458 -0.26727,0.26727 -0.01992,0.0398 0.01408,0.0914 0,0.13364 -0.322657,0.96797 0.03853,-0.21069 -0.267268,0.4009 -0.03984,0.0797 0.03984,0.18759 0,0.26727 -0.102339,0.20467 -0.238142,0.10451 -0.400906,0.26727 -0.02732,0.0273 0.02649,0.34792 0,0.4009 -0.02817,0.0564 -0.08909,0.0891 -0.133635,0.13364 -0.08909,0.0891 -0.178179,0.17818 -0.267269,0.26727 -0.222726,0.22272 -0.445449,0.44545 -0.668174,0.66817 -0.222726,0.22273 -0.445449,0.44545 -0.668173,0.66817 -0.08559,0.0856 -0.409482,0.45117 -0.53454,0.53455 -0.08288,0.0553 -0.184394,0.0784 -0.267268,0.13363 -0.154195,0.10279 -0.246711,0.29811 -0.400906,0.4009 -0.08288,0.0553 -0.184393,0.0784 -0.267268,0.13364 -0.05242,0.0349 -0.07387,0.11371 -0.133636,0.13363 -0.08452,0.0282 -0.187585,-0.0398 -0.267269,0 -0.303803,0.1519 -0.265298,0.43382 -0.668174,0.53454 -0.886422,0 0.188987,-0.063 -0.400904,0.13364 -0.08452,0.0282 -0.182753,-0.0282 -0.267272,0 -0.05976,0.0199 -0.08909,0.0891 -0.133632,0.13362 -0.04454,0.0446 -0.08909,0.0891 -0.133636,0.13365 -0.172021,0.17202 -0.290056,0.3194 -0.534538,0.40089 -0.397809,0.13261 0.274193,-0.31642 -0.400905,0.13364 -0.305798,0.20386 0.08356,0.10578 -0.400905,0.26727 -0.04226,0.0141 -0.09042,-0.0108 -0.133635,0 -0.136658,0.0342 -0.264245,0.0995 -0.400905,0.13364 -0.04321,0.0108 -0.09042,-0.0108 -0.133633,0 -0.136657,0.0342 -0.264247,0.0995 -0.400905,0.13363 -0.04321,0.0108 -0.09657,-0.0247 -0.133635,0 -0.104831,0.0699 -0.178179,0.17818 -0.267269,0.26726 -0.04455,0.0445 -0.07729,0.10548 -0.133636,0.13365 -0.07968,0.0398 -0.187584,-0.0398 -0.267269,0 -0.05635,0.0282 -0.07729,0.10546 -0.133633,0.13363 -0.03984,0.0199 -0.08909,0 -0.133636,0 -0.08909,0 -0.182753,-0.0282 -0.267269,0 -0.05976,0.0199 -0.08122,0.0987 -0.133635,0.13364 -0.08288,0.0553 -0.184394,0.0784 -0.267269,0.13363 -0.305798,0.20387 0.08356,0.10578 -0.400905,0.26727 -0.04226,0.0141 -0.09379,-0.0199 -0.133636,0 -0.05635,0.0282 -0.07387,0.11372 -0.133633,0.13363 -0.06112,0.0204 -0.475075,-0.0297 -0.53454,0 -0.222787,0.1114 -0.06038,0.26728 -0.400905,0.26728"
         style="fill:#ff0000;stroke:#000000;stroke-width:0.26458332px;stroke-linecap:butt;stroke-linejoin:miter;stroke-opacity:1" />
    </g>
  </g>
</svg>
